<?xml version="1.0" encoding="UTF-8" standalone="no"?>
<!-- Created with Inkscape (http://www.inkscape.org/) -->

<svg
   width="100mm"
   height="100mm"
   viewBox="0 0 100 100"
   version="1.1"
   id="svg1"
   inkscape:version="1.4.3 (0d15f75, 2025-12-25)"
   sodipodi:docname="logo.svg"
   xmlns:inkscape="http://www.inkscape.org/namespaces/inkscape"
   xmlns:sodipodi="http://sodipodi.sourceforge.net/DTD/sodipodi-0.dtd"
   xmlns="http://www.w3.org/2000/svg"
   xmlns:svg="http://www.w3.org/2000/svg">
  <sodipodi:namedview
     id="namedview1"
     pagecolor="#ffffff"
     bordercolor="#000000"
     borderopacity="0.25"
     inkscape:showpageshadow="2"
     inkscape:pageopacity="0.0"
     inkscape:pagecheckerboard="0"
     inkscape:deskcolor="#d1d1d1"
     inkscape:document-units="mm"
     inkscape:zoom="0.72604517"
     inkscape:cx="397.3582"
     inkscape:cy="230.7019"
     inkscape:window-width="1920"
     inkscape:window-height="1017"
     inkscape:window-x="-8"
     inkscape:window-y="-8"
     inkscape:window-maximized="1"
     inkscape:current-layer="layer1" />
  <defs
     id="defs1" />
  <g
     inkscape:label="Layer 1"
     inkscape:groupmode="layer"
     id="layer1">
    <path
       style="fill:#1a1a1a;stroke-width:0.264583"
       id="path3"
       d="m 18.005147,65.618885 c 0.08647,0.0383 0.172556,0.0776 0.259424,0.11507 0.32603,0.14059 0.305932,0.11938 0.628917,0.28313 0.10051,0.051 0.395253,0.21663 0.297794,0.16005 -0.488255,-0.28345 -1.955777,-1.12891 -1.470303,-0.84072 0.661926,0.39292 1.33314,0.76998 1.99971,1.15498 -0.497451,-0.28576 -0.993981,-0.57313 -1.492351,-0.85728 -0.09776,-0.0557 0.192617,0.11647 0.290484,0.17202 1.120656,0.63605 1.99335,1.24627 3.174405,1.58859 0.729503,0.18518 1.464979,0.31757 2.215554,0.37174 1.267196,0.0467 2.535865,0.0342 3.803735,0.0366 1.370528,0.007 2.739247,-0.082 4.108918,-0.12164 1.361887,-0.0376 2.724502,-0.0391 4.086818,-0.0407 1.36743,-0.002 2.734823,0.008 4.102224,0.0144 1.285999,0.069 2.572046,0.12674 3.859623,0.15566 1.355328,0.0104 2.707538,0.10097 4.061858,0.14588 1.43475,0.0487 2.87035,0.0621 4.30579,0.0722 1.24656,-0.005 2.49069,0.004 3.73553,0.0684 1.37054,0.0563 2.74117,0.10714 4.11187,0.15869 2.13111,0.0608 4.26257,0.0962 6.39448,0.10629 2.42319,0.0313 4.84557,0.009 7.26673,-0.0948 3.05123,-0.19097 6.09928,-0.42488 9.14878,-0.64271 1.57704,-0.10779 3.16318,-0.17423 4.71522,-0.49788 0.80813,-0.16853 1.00311,-0.24934 1.77502,-0.49068 1.59393,-0.5737 2.76335,-1.41867 3.9963,-2.55048 0.91669,-0.94925 1.7731,-1.9636 2.5094,-3.06036 0.40226,-0.59918 0.67543,-1.08809 1.03855,-1.70913 0.58448,-1.02592 1.02306,-2.1316 1.27401,-3.28651 0.13793,-0.63484 0.16412,-0.98486 0.24131,-1.63021 0.17725,-1.65741 0.0672,-3.32423 -0.1209,-4.97464 -0.16712,-1.10179 -0.31681,-2.21148 -0.60703,-3.28962 -0.19514,-0.72497 -0.27434,-0.89717 -0.52865,-1.59783 -0.55169,-1.48347 -1.42244,-2.80521 -2.40246,-4.03627 -1.30156,-1.46804 -2.86227,-2.64102 -4.522,-3.66922 -1.83528,-1.09067 -3.6819,-2.19867 -5.67168,-2.99239 -0.34314,-0.13688 -1.10103,-0.39379 -1.46058,-0.51775 -0.88944,-0.26213 -1.78544,-0.51028 -2.71487,-0.57247 -0.606,-0.0405 -0.75781,-0.0139 -1.35809,0.0196 -1.18779,0.0868 -2.29146,0.54599 -3.39573,0.95351 -0.47114,0.15672 -0.92966,0.35519 -1.3696,0.58556 -1.10973,0.64096 3.0169,2.7136 2.66098,1.45338 -0.16359,-0.53347 -0.45101,-1.02758 -0.73039,-1.50814 -0.74126,-1.13159 -1.4776,-2.2664 -2.21073,-3.4034 -0.61239,-0.96063 -1.246,-1.91049 -2.0036,-2.76408 -0.41294,-0.46527 -0.78786,-0.83584 -1.22405,-1.28023 -1.35506,-1.37191 -2.8689,-2.56038 -4.45481,-3.65044 -0.30418,-0.18895 -0.60359,-0.38581 -0.91254,-0.56687 -1.18147,-0.69239 -2.36797,-1.37624 -3.55832,-2.05324 -0.83994,-0.4777 -1.03785,-0.54629 -1.89392,-0.97873 -0.85128,-0.43002 -1.19796,-0.61858 -2.04613,-1.06722 -1.31378,-0.67313 -2.61653,-1.37801 -3.97171,-1.96673 -0.78475,-0.34091 -1.05789,-0.42158 -1.8606,-0.70495 -1.1902,-0.40067 -2.41869,-0.68929 -3.66989,-0.81269 -0.62323,-0.0615 -1.20106,-0.0662 -1.82589,-0.0832 -1.12586,0.002 -2.250655,0.0725 -3.358418,0.28266 -0.564645,0.10714 -0.969396,0.22649 -1.521127,0.37464 -1.246179,0.38472 -2.384787,1.02237 -3.443713,1.77255 -0.931701,0.71949 -1.696646,1.61902 -2.490756,2.48065 -0.533643,0.57246 -1.017095,1.18538 -1.615138,1.69341 -0.106087,0.0526 -0.217715,0.22876 -0.342154,0.23391 0.140584,-0.30946 0.03008,-0.0131 -0.205287,-0.15087 -0.534067,-0.10831 -1.092687,-0.0831 -1.636044,-0.0938 -1.173958,-0.0382 -2.346057,0.053 -3.510232,0.19738 -1.55272,0.23556 -3.092214,0.54588 -4.592405,1.0115 -2.121069,0.67753 -4.096763,1.71468 -6.055232,2.75746 -2.889621,1.57755 -5.407594,3.73472 -7.805923,5.9679 -1.7145525,1.69902 -3.3527205,3.50935 -4.6309565,5.56731 -0.20774,0.33447 -0.389133,0.68459 -0.583703,1.02688 -0.639786,1.22017 -1.18891,2.4967 -1.497928,3.8438 -0.176199,0.7681 -0.196635,1.10683 -0.29216,1.88991 -0.09933,1.20971 -0.188013,2.43009 -0.09731,3.64389 0.05511,0.73749 0.110109,0.9101 0.249664,1.63229 0.352176,1.66178 1.170434,3.13502 2.047139,4.5682 0.817184,1.26683 1.724972,2.47116 2.655938,3.65567 0.767897,0.95739 1.600287,1.85988 2.4506995,2.74381 0.794409,0.81927 1.685452,1.53002 2.634687,2.15972 1.381606,0.57923 2.579235,1.62085 3.971208,2.22466 0.765627,0.33211 1.564288,0.5897 2.359874,0.83793 1.196993,0.41725 2.437947,0.65988 3.683058,0.87932 1.135197,0.23147 2.295623,0.27145 3.440933,0.422 0.449905,0.0589 0.898157,0.12962 1.342485,0.2216 0.07926,0.0309 0.15531,5.3e-4 0.238651,-0.004 0.02297,-7.9e-4 0.04724,-0.0102 0.06891,-0.003 0.02724,0.01 0.04643,0.0344 0.06964,0.0517 0.02909,0.0131 0.057,0.0292 0.08728,0.0393 0.128418,0.0427 0.259244,0.0516 0.389147,0.0952 0.741839,0.12727 1.489691,0.22431 2.237676,0.31231 1.121797,0.1246 2.249355,0.17275 3.376957,0.20161 0.878676,0.02 1.755804,-0.0661 2.632596,-0.11567 0.629158,-0.0884 1.235633,0.0223 1.85547,0.10858 1.086786,0.0884 2.168549,0.20759 3.248218,0.36189 1.082683,0.15472 2.178238,0.16772 3.269747,0.191 0.999749,-0.0136 1.989339,0.14119 2.980479,0.24773 0.95434,0.0661 1.90783,0.11774 2.85586,0.24991 0.90253,0.13849 1.81425,0.19916 2.72598,0.23184 0.87762,0.037 1.75258,0.0256 2.6279,-0.0418 0.9084,-0.0758 1.81961,-0.095 2.7304,-0.11761 1.01459,-0.0282 2.03375,-0.0698 3.04388,-0.17434 0.66738,-0.0817 1.33683,-0.14107 2.00857,-0.16866 0.14572,-0.0516 0.42955,0.0589 0.56246,-0.0478 0.0981,-0.0787 -0.14291,-0.21237 -0.24277,-0.28882 -0.15648,-0.1198 -0.31482,-0.23714 -0.47224,-0.35571 -0.1175,-0.0901 -0.235,-0.18026 -0.3525,-0.2704 0,0 0.0742,0.0298 0.0742,0.0298 v 0 c -0.16779,-0.1307 -0.33559,-0.26139 -0.50338,-0.39209 -0.7065,-0.49726 -1.14136,-0.89578 -2.01659,-0.79459 -0.66193,0.0445 -1.31956,0.13219 -1.97835,0.2088 -1.00222,0.089 -2.00877,0.15223 -3.01502,0.1606 -0.91847,0.01 -1.83609,0.0505 -2.75181,0.12358 -0.86945,0.0485 -1.739,0.0454 -2.60913,0.008 -0.90361,-0.0428 -1.80505,-0.11429 -2.69995,-0.25116 -0.94949,-0.11242 -1.9034,-0.15058 -2.854833,-0.24103 -0.991163,-0.11223 -1.982673,-0.23031 -2.982629,-0.21039 -1.086985,-0.0246 -2.174568,-0.0698 -3.251761,-0.22815 -1.088239,-0.14227 -2.181788,-0.23486 -3.269192,-0.38287 -0.63963,-0.10123 -1.269931,-0.13752 -1.915781,-0.0558 -0.85503,0.071 -1.71173,0.15695 -2.570957,0.1185 -1.116533,-0.0272 -2.234083,-0.0766 -3.34251,-0.22114 -0.754933,-0.10382 -1.516237,-0.20001 -2.255234,-0.38969 -0.232749,-0.0519 -0.450922,-0.15149 -0.693454,-0.12072 -0.07462,-0.004 -0.12481,-0.0346 -0.196885,-0.0403 -0.42227,-0.0543 -0.846598,-0.093 -1.26959,-0.14092 -1.126908,-0.0962 -2.255438,-0.18424 -3.36841,-0.39657 -1.231366,-0.21776 -2.450896,-0.4863 -3.633684,-0.89967 -0.593281,-0.19438 -1.183889,-0.39217 -1.761435,-0.63044 -1.093589,-0.45117 -3.344026,-1.74506 1.302425,0.89296 -0.971368,-0.59932 -1.876851,-1.29084 -2.68814,-2.09661 -0.864616,-0.88355 -1.724885,-1.77346 -2.507335,-2.73194 -0.9529175,-1.18259 -1.8798135,-2.38676 -2.7301395,-3.646 -0.878578,-1.39273 -1.684822,-2.83938 -2.076431,-4.45377 -0.155665,-0.72002 -0.206029,-0.85266 -0.277818,-1.59014 -0.1167,-1.19882 -0.03977,-2.40562 0.05694,-3.60252 0.0914,-0.77147 0.110723,-1.09137 0.273735,-1.84923 0.285599,-1.32774 0.795057,-2.59148 1.412433,-3.79771 0.185044,-0.33872 0.357677,-0.68452 0.555133,-1.01616 1.225309,-2.05802 2.8200425,-3.86542 4.5026465,-5.55771 0.411737,-0.38761 0.814412,-0.78508 1.23521,-1.16284 2.017962,-1.81156 4.233749,-3.40244 6.638983,-4.65992 1.976745,-1.01153 3.973002,-2.00595 6.107978,-2.64454 1.512247,-0.41606 3.05032,-0.72739 4.605967,-0.93244 1.170575,-0.12502 2.346516,-0.18467 3.523734,-0.1272 0.553773,0.0207 1.111988,0.0343 1.649654,0.18264 0.04289,-0.001 0.150116,-0.009 0.202514,0.004 0.01405,0.003 0.03052,0.009 0.03813,0.0208 0.0069,0.0112 -0.01154,0.0473 -7.94e-4,0.0396 0.05504,-0.0395 0.08491,-0.0887 0.119102,-0.14099 0.09151,-0.12239 0.212514,-0.22072 0.305642,-0.34187 0.510759,-0.58798 1.003329,-1.19149 1.527865,-1.7673 0.767382,-0.85325 1.520397,-1.73185 2.443692,-2.42363 1.036854,-0.71482 2.145371,-1.32949 3.358412,-1.69173 0.601374,-0.15981 0.867989,-0.2441 1.487937,-0.35286 1.09445,-0.19202 2.20831,-0.23732 3.31724,-0.24043 0.7133,0.0256 1.08679,0.0251 1.79964,0.1075 1.22932,0.14204 2.4353,0.44133 3.60372,0.84491 1.97544,0.71972 3.86435,1.63781 5.7145,2.63501 0.98999,0.52091 1.99399,1.01477 2.98409,1.53497 0.3182,0.16718 1.25075,0.7081 0.94648,0.51672 -0.55895,-0.35158 -1.13502,-0.67549 -1.71133,-0.99781 -0.31089,-0.17386 0.60987,0.36822 0.9148,0.55233 1.59906,1.07126 3.12101,2.24449 4.49162,3.60134 1.2283,1.22375 2.38047,2.479 3.25943,3.98777 0.71207,1.11207 1.39742,2.24088 2.11537,3.34917 0.273,0.45033 0.50464,0.92106 0.72468,1.39844 0.21726,1.14764 1.9855,2.26016 2.9743,1.72074 0.39695,-0.24259 0.82381,-0.42864 1.25262,-0.60704 1.05318,-0.42413 2.1255,-0.84196 3.27043,-0.91977 0.55624,-0.0233 0.73765,-0.048 1.29709,-0.002 0.88836,0.0735 1.75015,0.31606 2.60156,0.56672 1.0039,0.34448 1.98351,0.72711 2.93775,1.19462 0.27102,0.13278 1.05546,0.58289 0.80468,0.415 -0.50151,-0.33573 -1.03952,-0.61344 -1.55928,-0.92016 1.67929,0.99993 3.2553,2.14537 4.58397,3.59168 1.01711,1.20825 1.91558,2.52015 2.51665,3.98893 0.62395,1.59998 1.04965,3.17738 1.27204,4.88418 0.23046,1.64696 0.37507,3.30962 0.24704,4.97312 -0.0608,0.66929 -0.0704,0.95848 -0.1959,1.61688 -0.21792,1.14314 -0.61904,2.24182 -1.1829,3.25959 -0.97337,1.72433 -2.067,3.3443 -3.54196,4.68747 -1.19128,1.09208 -2.38303,1.92595 -3.9203,2.47481 -0.79157,0.25176 -0.89893,0.30653 -1.73195,0.48368 -1.51791,0.32279 -3.07006,0.41794 -4.61313,0.54152 -3.05747,0.25281 -6.11774,0.48483 -9.18358,0.60803 -2.41718,0.10076 -4.83521,0.12288 -7.25432,0.0897 -2.14975,-0.0228 -4.30081,-0.0381 -6.44791,-0.15675 -1.3797,-0.0782 -2.7606,-0.11038 -4.14072,-0.18033 -1.23811,-0.057 -2.47654,-0.0426 -3.71573,-0.041 -1.42882,-0.004 -2.85787,-0.0136 -4.28585,-0.0674 -1.353229,-0.0589 -2.705538,-0.14706 -4.06075,-0.14132 -1.28519,-0.0367 -2.568657,-0.10989 -3.853836,-0.14416 -1.353635,0.005 -2.707254,0.0139 -4.060902,0.0166 -1.357114,0.007 -2.714331,0.0153 -4.070834,0.0609 -1.353304,0.0532 -2.705542,0.15118 -4.060267,0.14711 -1.273511,-10e-4 -2.548519,0.005 -3.820324,-0.0697 -0.714941,-0.0596 -1.421653,-0.17164 -2.115917,-0.35656 -0.331529,-0.10661 -0.359479,-0.10631 -0.679519,-0.24654 -0.110771,-0.0485 -0.43066,-0.21896 -0.328073,-0.15491 0.487024,0.30405 0.989399,0.58281 1.483053,0.87598 0.101494,0.0603 -0.204372,-0.11819 -0.306557,-0.17728 -0.680789,-0.39404 -1.361575,-0.78807 -2.042363,-1.18211 0.500327,0.28988 2.005824,1.15159 1.500981,0.86964 -1.046189,-0.58427 -1.995424,-1.23106 -3.118406,-1.62328 z" />
    <text
       xml:space="preserve"
       style="font-style:normal;font-variant:normal;font-weight:normal;font-stretch:normal;font-size:14.1111px;font-family:Broadway;-inkscape-font-specification:Broadway;writing-mode:lr-tb;direction:ltr;fill:#ffff00;stroke-width:0.264583"
       x="8.8805723"
       y="46.927059"
       id="text7"><tspan
         sodipodi:role="line"
         id="tspan7"
         style="stroke-width:0.264583"
         x="8.8805723"
         y="46.927059">Apartman</tspan></text>
    <text
       xml:space="preserve"
       style="font-style:normal;font-variant:normal;font-weight:normal;font-stretch:normal;font-size:19.0785px;font-family:Forte;-inkscape-font-specification:Forte;writing-mode:lr-tb;direction:ltr;fill:#000080;stroke-width:0.357721"
       x="10.493075"
       y="58.575466"
       id="text9"
       transform="scale(0.99036533,1.0097284)"><tspan
         sodipodi:role="line"
         id="tspan9"
         style="fill:#000080;stroke-width:0.357721"
         x="10.493075"
         y="58.575466">Crikvenica</tspan></text>
  </g>
</svg>
